HIERARCHY
ROOT Hips
{
	OFFSET -3.958830 18.904000 13.208200
	CHANNELS 6 Xposition Yposition Zposition Zrotation Yrotation Xrotation 
	JOINT LHipJoint
	{
		OFFSET 0.000000 0.000000 0.000000
		CHANNELS 3 Zrotation Yrotation Xrotation
		JOINT LeftUpLeg
		{
			OFFSET 1.800000 -1.400000 0.085000
			CHANNELS 3 Zrotation Yrotation Xrotation
			JOINT LeftLeg
			{
				OFFSET 2.215000 -6.000000 0.000000
				CHANNELS 3 Zrotation Yrotation Xrotation
				JOINT LeftFoot
				{
					OFFSET 2.500000 -6.900000 0.000000
					CHANNELS 3 Zrotation Yrotation Xrotation
					JOINT LeftToeBase
					{
						OFFSET 0.200000 -0.500000 1.950000
						CHANNELS 3 Zrotation Yrotation Xrotation
						End Site
						{
							OFFSET 0.000000 0.000000 0.000000
						}
					}
				}
			}
		}
	}
	JOINT RHipJoint
	{
		OFFSET 0.000000 0.000000 0.000000
		CHANNELS 3 Zrotation Yrotation Xrotation
		JOINT RightUpLeg
		{
			OFFSET -1.800000 -1.400000 0.085000
			CHANNELS 3 Zrotation Yrotation Xrotation
			JOINT RightLeg
			{
				OFFSET -2.215000 -6.000000 0.000000
				CHANNELS 3 Zrotation Yrotation Xrotation
				JOINT RightFoot
				{
					OFFSET -2.500000 -6.900000 0.000000
					CHANNELS 3 Zrotation Yrotation Xrotation
					JOINT RightToeBase
					{
						OFFSET -0.200000 -0.500000 1.950000
						CHANNELS 3 Zrotation Yrotation Xrotation
						End Site
						{
							OFFSET 0.000000 0.000000 0.000000
						}
					}
				}
			}
		}
	}
	JOINT LowerBack
	{
		OFFSET 0.000000 0.000000 0.000000
		CHANNELS 3 Zrotation Yrotation Xrotation
		JOINT Spine
		{
			OFFSET -0.087000 1.940000 -0.288900
			CHANNELS 3 Zrotation Yrotation Xrotation
			JOINT Spine1
			{
				OFFSET 0.000000 1.950000 0.060000
				CHANNELS 3 Zrotation Yrotation Xrotation
				JOINT Neck
				{
					OFFSET 0.000000 0.000000 0.000000
					CHANNELS 3 Zrotation Yrotation Xrotation
					JOINT Neck1
					{
						OFFSET 0.000000 1.600000 0.340000
						CHANNELS 3 Zrotation Yrotation Xrotation
						JOINT Head
						{
							OFFSET 0.000000 1.667000 -0.240000
							CHANNELS 3 Zrotation Yrotation Xrotation
							End Site
							{
								OFFSET 0.000000 0.000000 0.000000
							}
						}
					}
				}
				JOINT LeftShoulder
				{
					OFFSET 0.000000 0.000000 0.000000
					CHANNELS 3 Zrotation Yrotation Xrotation
					JOINT LeftArm
					{
						OFFSET 2.700000 1.550000 -0.730000
						CHANNELS 3 Zrotation Yrotation Xrotation
						JOINT LeftForeArm
						{
							OFFSET 5.450000 0.000000 0.000000
							CHANNELS 3 Zrotation Yrotation Xrotation
							JOINT LeftHand
							{
								OFFSET 3.450000 0.000000 0.000000
								CHANNELS 3 Zrotation Yrotation Xrotation
								JOINT LeftHandIndex1
								{
									OFFSET 0.750000 0.000000 0.000000
									CHANNELS 3 Zrotation Yrotation Xrotation
									End Site
									{
										OFFSET 0.000000 0.000000 0.000000
									}
								}
							}
						}
					}
				}
				JOINT RightShoulder
				{
					OFFSET 0.000000 0.000000 0.000000
					CHANNELS 3 Zrotation Yrotation Xrotation
					JOINT RightArm
					{
						OFFSET -2.700000 1.550000 -0.730000
						CHANNELS 3 Zrotation Yrotation Xrotation
						JOINT RightForeArm
						{
							OFFSET -5.450000 0.000000 0.000000
							CHANNELS 3 Zrotation Yrotation Xrotation
							JOINT RightHand
							{
								OFFSET -3.450000 0.000000 0.000000
								CHANNELS 3 Zrotation Yrotation Xrotation
								JOINT RightHandIndex1
								{
									OFFSET -0.750000 0.000000 0.000000
									CHANNELS 3 Zrotation Yrotation Xrotation
									End Site
									{
										OFFSET 0.000000 0.000000 0.000000
									}
								}
							}
						}
					}
				}
			}
		}
	}
}
MOTION
Frames: 13
Frame Time: 0.016667
0.594110 17.455200 -3.652720 -3.974353 10.868249 -1.826891 -14.440365 12.107333 2.507405 11.061992 -0.627904 -6.257650 -4.160651 3.812416 1.035832 -0.049573 3.597289 3.542072 0.075700 -0.067670 -0.172470 19.015805 -11.724436 2.898375 -8.864041 0.048535 -6.754180 4.614336 -3.796345 3.117414 -0.091289 -3.921205 3.263941 -0.013070 0.436100 -0.029670 -5.900177 1.812751 -7.085131 23.647179 -1.254934 -0.114367 -15.381308 0.116618 14.674456 4.302326 -9.668054 -14.562265 -17.048564 4.976254 35.582466 5.080240 -4.755300 4.460770 -24.180025 -20.033578 8.092886 -64.065087 -7.234964 -2.461021 12.354368 -7.956514 -1.885912 -3.763470 3.188036 0.029620 0.165180 -0.333020 0.203670 16.040240 30.893123 13.258660 51.887339 20.579073 -9.410382 -33.102542 23.474191 -11.994864 2.248815 -1.756898 -0.142720 0.153590 0.043960 0.084650 
0.580780 17.465740 -3.664620 -3.584390 9.570690 -2.622474 -14.441447 12.115329 2.467957 10.698524 -0.475883 -5.112777 -3.949921 3.853079 1.185839 -0.067924 3.661605 3.527626 0.130170 0.000380 -0.155380 19.030366 -11.725814 2.859512 -9.397020 -0.042672 -6.413553 4.620565 -3.875933 3.418938 -0.116718 -3.990402 3.231319 0.039900 0.443970 -0.023530 -5.890604 1.742853 -7.025721 23.173756 -1.548445 0.477283 -15.229493 0.128416 17.215702 4.389075 -9.961247 -15.340218 -17.797375 5.687475 35.010470 5.688680 -4.456230 3.091770 -23.465467 -22.691590 8.749819 -63.809407 -8.916037 -2.103656 13.612289 -7.085025 -1.874261 -3.746409 3.246983 0.034360 0.166110 -0.327260 0.226540 15.667497 33.421014 13.924796 48.887294 22.768683 -9.648777 -34.077904 21.514808 -11.978318 2.245802 -1.834977 -0.141950 0.175640 0.028940 0.087690 
0.561570 17.486490 -3.682110 -3.369405 6.748067 -3.382414 -14.414066 12.126099 2.418547 10.446650 -0.295320 -3.770419 -3.538997 3.909074 1.563128 -0.080391 3.723526 3.503505 0.182330 0.080520 -0.135320 19.066436 -11.775291 2.830009 -9.593018 -0.072834 -6.511937 4.305964 -3.866791 3.838610 -0.121664 -4.001428 3.205421 0.102010 0.442510 -0.016030 -5.925996 1.771321 -6.955707 23.159084 -1.514637 1.052796 -14.953188 0.372931 20.080407 4.587257 -10.379256 -16.296115 -18.788489 6.405173 34.669088 5.670560 -4.018110 1.830270 -22.921373 -25.152583 9.289035 -63.271569 -10.871844 -1.896775 15.936062 -6.900188 -2.119343 -3.736603 3.315116 0.016620 0.172120 -0.320860 0.236070 15.323003 35.888070 14.665547 44.185606 26.221580 -9.701675 -35.607382 17.663101 -11.534557 2.296823 -1.953650 -0.130560 0.189180 0.015750 0.094730 
0.536610 17.508030 -3.703230 -3.248862 4.454496 -4.264989 -14.376748 12.117092 2.363126 10.468461 -0.137332 -2.846353 -3.396566 4.023719 2.261088 -0.104260 3.768733 3.476922 0.253530 0.178800 -0.086150 19.105902 -11.856793 2.825377 -9.626451 -0.164465 -6.329847 3.984365 -3.868679 4.081604 -0.151343 -4.015676 3.187477 0.167750 0.419310 -0.012200 -5.995385 1.907879 -6.910878 23.244945 -1.534633 1.747411 -15.059485 0.565074 22.526259 4.900281 -10.655275 -16.872792 -19.362806 6.971990 34.937357 5.511320 -3.658660 -0.250380 -21.423113 -26.323269 9.444932 -62.842857 -13.012487 -2.014372 18.841932 -8.116883 -2.836355 -3.713645 3.340827 0.021420 0.162340 -0.291080 0.243090 13.698732 37.226886 15.057487 40.548110 30.762531 -9.518554 -37.577103 12.537315 -10.863395 2.367690 -2.058137 -0.115130 0.214940 -0.009760 0.092650 
0.523070 17.520170 -3.718130 -3.074358 4.046598 -4.994217 -14.352828 12.102985 2.303199 10.329868 -0.051613 -2.570391 -3.232281 4.094884 3.034002 -0.137569 3.761293 3.486463 0.301480 0.249630 -0.060330 19.127483 -11.930237 2.840645 -10.006181 -0.277865 -5.910584 4.199498 -3.962902 4.143463 -0.183158 -4.095362 3.171686 0.219460 0.421130 -0.023480 -6.053377 2.066204 -6.893796 23.068436 -1.803988 2.230546 -15.119932 0.357701 23.884636 5.156252 -10.781380 -16.867647 -19.270384 7.449108 35.006667 5.190910 -3.238490 -1.530880 -20.001509 -26.039924 9.451539 -63.230641 -14.410845 -3.159429 22.871256 -12.245568 -4.625234 -3.682579 3.331468 0.025150 0.165160 -0.278790 0.266240 12.060900 37.218746 14.956125 38.370489 34.834965 -9.844890 -40.751130 8.425281 -10.839108 2.411776 -2.148548 -0.120830 0.256570 -0.033990 0.092500 
0.500790 17.537550 -3.731690 -3.174346 4.666632 -6.077603 -14.345490 12.122850 2.239981 10.681867 0.047848 -2.254164 -3.008134 4.184337 3.793976 -0.161026 3.777265 3.466027 0.357530 0.310030 -0.010470 19.138345 -11.946634 2.872525 -9.981250 -0.513410 -4.754659 4.254787 -4.045788 3.811288 -0.250794 -4.190302 3.134373 0.251160 0.379820 -0.020460 -6.084798 2.058698 -6.919600 22.613663 -2.260265 2.990466 -14.847920 -0.103076 25.473438 5.401427 -10.676679 -17.143535 -19.009390 7.492224 35.878729 5.027060 -3.257970 -3.192590 -18.367823 -26.407538 9.829439 -63.689046 -16.044774 -4.873923 28.282462 -17.286545 -7.474720 -3.611509 3.333913 0.059250 0.134810 -0.238530 0.271870 10.222534 37.551109 15.122748 35.998070 37.906383 -11.611297 -45.475836 5.109663 -11.447970 2.446178 -2.246471 -0.108980 0.266710 -0.059170 0.079930 
0.475670 17.547430 -3.745020 -2.739248 4.306051 -6.951699 -14.332387 12.112342 2.210770 10.537454 0.136036 -1.785417 -2.971973 4.257731 4.376874 -0.236031 3.819895 3.425785 0.397990 0.342640 0.037740 19.147087 -12.002361 2.889213 -10.525885 -0.657753 -4.132525 4.317971 -4.147162 3.744196 -0.291496 -4.266834 3.079274 0.292250 0.342210 -0.021640 -6.110107 2.171146 -6.945594 21.510076 -2.230750 3.944577 -14.441618 -0.055263 26.654027 5.602013 -10.621167 -16.886861 -18.514353 7.818760 36.215873 5.031080 -2.948160 -5.406810 -16.604880 -25.831204 9.823222 -64.491106 -18.196623 -6.305518 34.719174 -22.947194 -11.459876 -3.576744 3.284174 0.115080 0.106890 -0.212350 0.251650 8.386593 37.206539 14.947160 34.537020 40.958098 -13.608192 -51.366845 3.475646 -12.936114 2.407038 -2.308277 -0.129460 0.286390 -0.052070 0.043580 
0.451680 17.557520 -3.754010 -2.746069 3.538840 -7.967328 -14.296866 12.091117 2.158299 10.882000 0.257111 -1.106493 -2.894361 4.373571 5.026693 -0.266778 3.879767 3.391021 0.447820 0.404110 0.073500 19.183772 -12.078883 2.907732 -10.451019 -0.843383 -3.388236 4.095024 -4.199431 3.756837 -0.331610 -4.344170 3.043893 0.338240 0.318070 -0.020000 -6.196178 2.317252 -6.973571 21.181214 -2.093791 4.798446 -13.749158 -0.031960 28.622695 5.747934 -10.653989 -17.156117 -18.271755 7.935394 36.144771 4.866540 -2.786380 -6.943180 -15.099171 -26.403655 10.358999 -64.858041 -20.717957 -7.915000 42.507997 -29.561493 -17.327659 -3.537478 3.232678 0.127590 0.096710 -0.195080 0.252310 7.087926 37.885225 15.257891 31.338797 42.751217 -17.092327 -58.505677 3.638104 -15.743379 2.339455 -2.379470 -0.124890 0.296740 -0.065700 0.031900 
0.427370 17.575460 -3.761030 -2.694475 2.845480 -9.052982 -14.271716 12.080653 2.094233 11.156475 0.405117 -0.323570 -2.738572 4.500422 5.755894 -0.315228 3.974562 3.350240 0.477530 0.445020 0.087760 19.216404 -12.125445 2.917879 -10.555512 -1.040730 -2.546494 4.148022 -4.320786 3.777237 -0.376130 -4.440968 3.006306 0.377440 0.319600 -0.019200 -6.265348 2.385619 -6.971832 20.962493 -1.710096 5.706411 -12.761222 0.175563 30.447279 5.460868 -10.681217 -17.135024 -18.359286 7.643251 36.282025 5.097740 -3.244040 -9.018350 -13.750422 -27.578826 11.056043 -63.789262 -23.792098 -8.624684 50.743965 -34.200003 -23.769336 -3.534374 3.117966 0.154610 0.091570 -0.180750 0.250790 6.688542 38.929665 15.081132 28.468925 42.340453 -20.543606 -66.173329 6.139121 -19.622249 2.249616 -2.324112 -0.136330 0.339300 -0.054150 0.024600 
0.406650 17.584590 -3.764800 -2.716459 2.517631 -9.964711 -14.293096 12.082730 2.035378 11.455631 0.487397 0.278134 -2.375107 4.544121 6.146155 -0.332649 4.062084 3.328850 0.474220 0.431190 0.084690 19.210488 -12.113486 2.924114 -10.589602 -1.215756 -1.617923 4.308522 -4.429452 3.611779 -0.398215 -4.562150 2.970832 0.383990 0.341290 -0.012550 -6.220751 2.360730 -6.923577 20.527740 -1.413995 6.451919 -11.569713 0.337462 31.487347 4.818782 -10.459217 -16.549087 -17.987401 7.014245 35.739868 5.163490 -3.770240 -9.414000 -11.433526 -27.947775 11.877064 -63.159204 -25.970617 -8.870073 59.359380 -40.120344 -32.274074 -3.553044 2.965346 0.155070 0.107870 -0.196960 0.250860 5.735296 38.988830 13.980091 26.868681 40.150858 -22.198421 -73.335394 11.206084 -24.713468 2.216162 -2.202466 -0.151640 0.352660 -0.040370 0.019360 
0.390810 17.580450 -3.773250 -2.815855 2.009202 -10.824209 -14.324085 12.094805 1.986230 11.700977 0.573108 0.831288 -1.964734 4.598949 6.638882 -0.342389 4.142439 3.314040 0.434420 0.395040 0.055460 19.186060 -12.127929 2.931993 -10.611499 -1.373341 -0.909734 4.490769 -4.549607 3.605068 -0.394886 -4.662759 2.955837 0.376130 0.383460 -0.020890 -6.133429 2.401681 -6.856405 20.149344 -1.163081 7.436085 -11.084701 0.668038 31.801866 4.515864 -9.870993 -15.333823 -16.786613 6.319424 34.722568 5.151510 -3.949170 -9.558400 -9.292965 -26.961810 12.279536 -60.300437 -26.592814 -8.524905 68.745243 -47.762123 -43.402534 -3.602894 2.664646 0.140550 0.140350 -0.228830 0.240070 4.098784 37.482500 12.065663 25.685065 38.009088 -21.245008 -78.434245 16.307631 -29.426886 2.188749 -2.045780 -0.178270 0.380270 -0.008710 0.018590 
0.387280 17.571190 -3.781540 -3.229823 1.001487 -11.774700 -14.331288 12.081984 1.912337 12.348130 0.630233 1.432634 -1.456512 4.678345 7.386561 -0.374642 4.267822 3.288038 0.397010 0.350860 0.034120 19.183498 -12.199360 2.938320 -10.379590 -1.544666 -0.292324 4.540515 -4.687494 3.880831 -0.381146 -4.780648 2.938488 0.377480 0.435690 -0.020370 -6.101482 2.580542 -6.764052 20.630624 -1.127964 8.532100 -11.395857 0.987755 32.264697 4.239835 -8.887885 -14.011164 -14.750929 5.323140 32.670798 4.525050 -3.806020 -9.340450 -6.187823 -25.618916 12.282078 -54.666835 -26.501165 -6.923994 83.221394 -53.854057 -59.443417 -3.740893 2.276909 0.118370 0.197360 -0.278310 0.228480 1.423345 34.921547 10.267111 24.592017 35.898880 -19.187729 -83.592013 22.027703 -35.477120 2.115397 -1.905803 -0.216180 0.400860 0.024440 0.005010 
0.386200 17.565240 -3.790590 -3.691174 0.359894 -13.114734 -14.370912 12.094539 1.843996 13.042004 0.691574 2.344728 -0.767064 4.722859 7.971329 -0.354902 4.399783 3.268305 0.400220 0.357920 0.049490 19.157644 -12.213619 2.937804 -10.152755 -1.807962 0.914000 4.539905 -4.829518 4.080990 -0.396841 -4.961231 2.894126 0.395850 0.474860 0.001850 -5.996943 2.597863 -6.667507 20.826500 -1.294997 10.103218 -11.037830 1.016096 33.070564 3.594110 -7.600657 -12.643270 -12.242685 4.028936 30.009092 3.187370 -3.374000 -8.592510 -1.764408 -23.816862 11.676628 -46.467620 -27.116695 -3.579431 99.586047 -54.779925 -77.027411 -3.951395 2.246343 0.054130 0.263990 -0.315450 0.235910 -1.893924 31.339836 8.663679 22.048784 33.248203 -16.636147 -89.327085 27.273502 -42.437122 2.035342 -1.828537 -0.214340 0.391570 0.014140 0.006100 
